<?xml version="1.0" encoding="utf-8"?>
<!-- Generator: Adobe Illustrator 19.1.0, SVG Export Plug-In . SVG Version: 6.00 Build 0)  -->
<svg version="1.1" id="Layer_1" xmlns="http://www.w3.org/2000/svg" xmlns:xlink="http://www.w3.org/1999/xlink" x="0px" y="0px"
	 viewBox="0 0 97 72" style="enable-background:new 0 0 97 72;" xml:space="preserve">
<style type="text/css">
	.st0{fill:none;stroke:#808080;stroke-width:2;stroke-miterlimit:10;}
	.st1{fill:#808080;}
	.st2{fill:#FFFFFF;stroke:#808080;stroke-width:2;stroke-miterlimit:10;}
	.st3{fill:#82327D;}
	.st4{fill:#AA321E;}
	.st5{fill:#1E3C96;}
	.st6{fill:#FFFFFF;}
	.st7{fill:none;stroke:#000000;stroke-miterlimit:10;}
</style>
<g id="Main_Nav_-_Neutral">
	<g>
		<path d="M62.5,24c-1.9296875,0-3.5-1.5756836-3.5-3.512207c0-1.1240234,0.5449219-2.1767578,1.4287109-2.8310547v-1.59375
			C60.4365234,14.9243164,61.3623047,14,62.5,14s2.0644531,0.9243164,2.0722656,2.0629883v1.5942383
			C65.4560547,18.3125,66,19.3647461,66,20.487793C66,22.4243164,64.4296875,24,62.5,24z M62.4287109,16.0766602v2.7709961
			l-0.5693359,0.2719727C61.3369141,19.3681641,61,19.9052734,61,20.487793C61,21.3217773,61.6728516,22,62.5,22
			s1.5-0.6782227,1.5-1.512207c0-0.581543-0.3369141-1.1191406-0.859375-1.3691406l-0.5683594-0.2719727v-2.7700195
			C62.5732422,15.9926758,62.4287109,15.9907227,62.4287109,16.0766602z"/>
		<path d="M33.5,24c-1.9296875,0-3.5-1.5756836-3.5-3.512207c0-1.1245117,0.5449219-2.1767578,1.4287109-2.8310547v-1.59375
			C31.4360352,14.9243164,32.3623047,14,33.5,14s2.0639648,0.9243164,2.0712891,2.0629883v1.5942383
			C36.4550781,18.3120117,37,19.3647461,37,20.487793C37,22.4243164,35.4296875,24,33.5,24z M33.4287109,16.0766602v2.7714844
			l-0.5698242,0.2714844C32.3374023,19.3681641,32,19.9052734,32,20.487793C32,21.3217773,32.6728516,22,33.5,22
			s1.5-0.6782227,1.5-1.512207c0-0.581543-0.3374023-1.1191406-0.8598633-1.3686523l-0.5688477-0.2719727v-2.7705078
			C33.5712891,15.9916992,33.4287109,15.9916992,33.4287109,16.0766602z"/>
		<rect x="74" y="11" width="2" height="17"/>
		<g>
			<path d="M86,29c-4.7939453,0-5.8486328-5.0859375-6.7792969-9.5727539C78.2626953,14.8056641,77.5009766,12,75,12v-2
				c4.3085938,0,5.3027344,4.7924805,6.1796875,9.0209961C82.1787109,23.8408203,83.0546875,27,86,27V29z"/>
			<path d="M22,29c-4.7939453,0-5.8486328-5.0859375-6.7788086-9.5727539C14.2626953,14.8056641,13.5004883,12,11,12v-2
				c4.3085938,0,5.3027344,4.7924805,6.1796875,9.0209961C18.1787109,23.8408203,19.0541992,27,22,27V29z"/>
		</g>
		<rect x="21" y="28" width="2" height="33"/>
		<g>
			<polygon points="87,62 21.5859375,62 10,50.4140625 10,10 75,10 75,12 12,12 12,49.5859375 22.4140625,60 85,60 85,29 22,29 
				22,27 87,27 			"/>
		</g>
	</g>
</g>
</svg>
