<?xml version="1.0" encoding="utf-8"?>
<!-- Generator: Adobe Illustrator 19.1.0, SVG Export Plug-In . SVG Version: 6.00 Build 0)  -->
<svg version="1.1" id="Layer_1" xmlns="http://www.w3.org/2000/svg" xmlns:xlink="http://www.w3.org/1999/xlink" x="0px" y="0px"
	 viewBox="0 0 83 72" style="enable-background:new 0 0 83 72;" xml:space="preserve">
<style type="text/css">
	.st0{fill:none;stroke:#808080;stroke-width:2;stroke-miterlimit:10;}
	.st1{fill:#808080;}
	.st2{fill:#FFFFFF;stroke:#808080;stroke-width:2;stroke-miterlimit:10;}
	.st3{fill:#82327D;}
	.st4{fill:#AA321E;}
	.st5{fill:#1E3C96;}
	.st6{fill:#FFFFFF;}
	.st7{fill:none;stroke:#000000;stroke-miterlimit:10;}
</style>
<g id="Main_Nav_-_Neutral">
	<g>
		<path d="M23.5,25c-4.1357422,0-7.5-3.3642578-7.5-7.5s3.3642578-7.5,7.5-7.5s7.5,3.3642578,7.5,7.5S27.6357422,25,23.5,25z
			 M23.5,12c-3.0322266,0-5.5,2.4672852-5.5,5.5s2.4677734,5.5,5.5,5.5s5.5-2.4672852,5.5-5.5S26.5322266,12,23.5,12z"/>
		<path d="M41.5,25c-4.1357422,0-7.5-3.3642578-7.5-7.5s3.3642578-7.5,7.5-7.5s7.5,3.3642578,7.5,7.5S45.6357422,25,41.5,25z
			 M41.5,12c-3.0322266,0-5.5,2.4672852-5.5,5.5s2.4677734,5.5,5.5,5.5s5.5-2.4672852,5.5-5.5S44.5322266,12,41.5,12z"/>
		<path d="M59.5,25c-4.1357422,0-7.5-3.3642578-7.5-7.5s3.3642578-7.5,7.5-7.5s7.5,3.3642578,7.5,7.5S63.6357422,25,59.5,25z
			 M59.5,12c-3.0322266,0-5.5,2.4672852-5.5,5.5s2.4677734,5.5,5.5,5.5s5.5-2.4672852,5.5-5.5S62.5322266,12,59.5,12z"/>
		<path d="M73,36.005127h-2v-3.2028236c-6.8515625-4.3288898-13.5126953-4.9688683-20.34375-1.9595051l-0.8066406-1.8310223
			c7.546875-3.3244667,15.1826172-2.5130138,22.6982422,2.4070034L73,31.7153187V36.005127z"/>
		<path d="M12,36.0041504h-2v-4.2888317l0.4521484-0.2965393c7.5185547-4.9219704,15.1582031-5.7309818,22.7050781-2.4045601
			l-0.8066406,1.8310223C25.5175781,27.8334351,18.8525391,28.4719467,12,32.8023033V36.0041504z"/>
		<path d="M55.5,36.005127h-2v-3.2028236c-8.0703125-5.0983295-15.9296875-5.0983295-24,0v3.2018471h-2v-4.2888317
			l0.4521484-0.2965393c8.9902344-5.8848705,18.1054688-5.8848705,27.0957031,0L55.5,31.7153187V36.005127z"/>
		<path d="M73,62H51.9374771V44.4125977l-20.875-0.0004883V62H10V35.0004883h63V62z M53.9374771,60.0004883H71v-23H12V60h17.0624771
			V42.4121094l24.875,0.0004883V60.0004883z"/>
	</g>
</g>
</svg>
