<?xml version="1.0" encoding="utf-8"?>
<!-- Generator: Adobe Illustrator 19.1.0, SVG Export Plug-In . SVG Version: 6.00 Build 0)  -->
<svg version="1.1" id="Layer_1" xmlns="http://www.w3.org/2000/svg" xmlns:xlink="http://www.w3.org/1999/xlink" x="0px" y="0px"
	 viewBox="0 0 97 72" style="enable-background:new 0 0 97 72;" xml:space="preserve">
<style type="text/css">
	.st0{fill:none;stroke:#808080;stroke-width:2;stroke-miterlimit:10;}
	.st1{fill:#808080;}
	.st2{fill:#FFFFFF;stroke:#808080;stroke-width:2;stroke-miterlimit:10;}
	.st3{fill:#82327D;}
	.st4{fill:#AA321E;}
	.st5{fill:#1E3C96;}
	.st6{fill:#FFFFFF;}
	.st7{fill:none;stroke:#000000;stroke-miterlimit:10;}
</style>
<g id="Main_Nav_-_Neutral">
	<g>
		<g id="XMLID_50_">
			<path d="M21.5,62C15.1591797,62,10,56.8295898,10,50.4746094v-8.2348633c0-1.7119141,1.390625-3.1049805,3.0996094-3.1049805
				c0.3876953,0,0.7587891,0.0717773,1.1005859,0.2021484v-6.5629883c0-1.7119141,1.390625-3.1049805,3.0996094-3.1049805
				c0.390625,0,0.7646484,0.0727539,1.109375,0.2050781C18.5273438,28.2695312,19.8681641,27,21.5,27
				c1.2011719,0,2.2441406,0.6875,2.7587891,1.690918c0.4306641-0.2275391,0.921875-0.3564453,1.4414062-0.3564453
				c1.7089844,0,3.0996094,1.3930664,3.0996094,3.1049805v1.6416016c0.3417969-0.1303711,0.7128906-0.2021484,1.1005859-0.2021484
				C31.609375,32.8789062,33,34.2719727,33,35.9838867v14.4990234C32.9951172,56.8344727,27.8388672,62,21.5,62z
				 M13.0996094,41.1347656C12.4931641,41.1347656,12,41.6303711,12,42.2397461v8.2348633C12,55.7270508,16.2617188,60,21.5,60
				s9.5-4.2729492,9.5-9.5253906V35.9838867c0-0.609375-0.4931641-1.1049805-1.0996094-1.1049805
				s-1.1005859,0.4956055-1.1005859,1.1049805h-2v-4.5444336c0-0.609375-0.4931641-1.1049805-1.0996094-1.1049805
				s-1.1005859,0.4956055-1.1005859,1.1049805h-2v-1.3344727C22.5996094,29.4956055,22.1064453,29,21.5,29
				s-1.0996094,0.4956055-1.0996094,1.1049805v2.6689453h-2c0-0.609375-0.4941406-1.1049805-1.1005859-1.1049805
				s-1.0996094,0.4956055-1.0996094,1.1049805v9.4658203h-2C14.2001953,41.6303711,13.7060547,41.1347656,13.0996094,41.1347656z"/>
			<g id="XMLID_51_">
				<path d="M28.7998047,44.7929688h-2V31.4394531c0-0.609375-0.4931641-1.1049805-1.0996094-1.1049805
					s-1.1005859,0.4956055-1.1005859,1.1049805h-2c0-1.7119141,1.390625-3.1049805,3.1005859-3.1049805
					c1.7089844,0,3.0996094,1.3930664,3.0996094,3.1049805V44.7929688z"/>
				<rect x="22.5996094" y="30.1049805" width="2" height="14.6879883"/>
				<path d="M20.4003906,44.7929688h-2V30.1049805C18.4003906,28.3930664,19.7910156,27,21.5,27
					s3.0996094,1.3930664,3.0996094,3.1049805h-2C22.5996094,29.4956055,22.1064453,29,21.5,29
					s-1.0996094,0.4956055-1.0996094,1.1049805V44.7929688z"/>
				<path d="M20.4003906,32.7739258h-2c0-0.609375-0.4941406-1.1049805-1.1005859-1.1049805
					s-1.0996094,0.4956055-1.0996094,1.1049805h-2c0-1.7119141,1.390625-3.1049805,3.0996094-3.1049805
					C19.0097656,29.6689453,20.4003906,31.0620117,20.4003906,32.7739258z"/>
				<rect x="14.2001953" y="32.7739258" width="2" height="9.4658203"/>
				<path d="M21.5,62C15.1591797,62,10,56.8295898,10,50.4746094v-8.2348633c0-1.7119141,1.390625-3.1049805,3.0996094-3.1049805
					c1.7099609,0,3.1005859,1.3930664,3.1005859,3.1049805v5.4511719c3.9912109,0.4951172,7.0908203,3.9150391,7.0908203,8.0463867
					h-2c0-3.3676758-2.7324219-6.1079102-6.0908203-6.1079102h-1v-7.3896484c0-0.609375-0.4941406-1.1049805-1.1005859-1.1049805
					S12,41.6303711,12,42.2397461v8.2348633C12,55.7270508,16.2617188,60,21.5,60s9.5-4.2729492,9.5-9.5253906V35.9838867
					c0-0.609375-0.4931641-1.1049805-1.0996094-1.1049805s-1.1005859,0.4956055-1.1005859,1.1049805h-2
					c0-1.7119141,1.390625-3.1049805,3.1005859-3.1049805C31.609375,32.8789062,33,34.2719727,33,35.9838867v14.4990234
					C32.9951172,56.8344727,27.8388672,62,21.5,62z"/>
			</g>
		</g>
		<g id="XMLID_41_">
			<path d="M75.5,62C69.1591797,62,64,56.8295898,64,50.4746094v-8.2348633c0-1.7119141,1.390625-3.1049805,3.0996094-3.1049805
				c0.3876953,0,0.7587891,0.0717773,1.1005859,0.2021484v-6.5629883c0-1.7119141,1.390625-3.1049805,3.0996094-3.1049805
				c0.390625,0,0.7646484,0.0727539,1.109375,0.2050781C72.5273438,28.2695312,73.8681641,27,75.5,27
				c1.2011719,0,2.2441406,0.6875,2.7587891,1.690918c0.4306641-0.2275391,0.921875-0.3564453,1.4414062-0.3564453
				c1.7089844,0,3.0996094,1.3930664,3.0996094,3.1049805v1.6416016c0.3417969-0.1303711,0.7128906-0.2021484,1.1005859-0.2021484
				C85.609375,32.8789062,87,34.2719727,87,35.9838867v14.4990234C86.9951172,56.8344727,81.8388672,62,75.5,62z
				 M67.0996094,41.1347656C66.4931641,41.1347656,66,41.6303711,66,42.2397461v8.2348633C66,55.7270508,70.2617188,60,75.5,60
				s9.5-4.2729492,9.5-9.5253906V35.9838867c0-0.609375-0.4931641-1.1049805-1.0996094-1.1049805
				s-1.1005859,0.4956055-1.1005859,1.1049805h-2v-4.5444336c0-0.609375-0.4931641-1.1049805-1.0996094-1.1049805
				s-1.1005859,0.4956055-1.1005859,1.1049805h-2v-1.3344727C76.5996094,29.4956055,76.1064453,29,75.5,29
				s-1.0996094,0.4956055-1.0996094,1.1049805v2.6689453h-2c0-0.609375-0.4941406-1.1049805-1.1005859-1.1049805
				s-1.0996094,0.4956055-1.0996094,1.1049805v9.4658203h-2C68.2001953,41.6303711,67.7060547,41.1347656,67.0996094,41.1347656z"/>
			<g id="XMLID_42_">
				<path d="M82.7998047,44.7929688h-2V31.4394531c0-0.609375-0.4931641-1.1049805-1.0996094-1.1049805
					s-1.1005859,0.4956055-1.1005859,1.1049805h-2c0-1.7119141,1.390625-3.1049805,3.1005859-3.1049805
					c1.7089844,0,3.0996094,1.3930664,3.0996094,3.1049805V44.7929688z"/>
				<rect x="76.5996094" y="30.1049805" width="2" height="14.6879883"/>
				<path d="M74.4003906,44.7929688h-2V30.1049805C72.4003906,28.3930664,73.7910156,27,75.5,27
					s3.0996094,1.3930664,3.0996094,3.1049805h-2C76.5996094,29.4956055,76.1064453,29,75.5,29
					s-1.0996094,0.4956055-1.0996094,1.1049805V44.7929688z"/>
				<path d="M74.4003906,32.7739258h-2c0-0.609375-0.4941406-1.1049805-1.1005859-1.1049805
					s-1.0996094,0.4956055-1.0996094,1.1049805h-2c0-1.7119141,1.390625-3.1049805,3.0996094-3.1049805
					C73.0097656,29.6689453,74.4003906,31.0620117,74.4003906,32.7739258z"/>
				<rect x="68.2001953" y="32.7739258" width="2" height="9.4658203"/>
				<path d="M75.5,62C69.1591797,62,64,56.8295898,64,50.4746094v-8.2348633c0-1.7119141,1.390625-3.1049805,3.0996094-3.1049805
					c1.7099609,0,3.1005859,1.3930664,3.1005859,3.1049805v5.4511719c3.9912109,0.4951172,7.0908203,3.9150391,7.0908203,8.0463867
					h-2c0-3.3676758-2.7324219-6.1079102-6.0908203-6.1079102h-1v-7.3896484c0-0.609375-0.4941406-1.1049805-1.1005859-1.1049805
					S66,41.6303711,66,42.2397461v8.2348633C66,55.7270508,70.2617188,60,75.5,60s9.5-4.2729492,9.5-9.5253906V35.9838867
					c0-0.609375-0.4931641-1.1049805-1.0996094-1.1049805s-1.1005859,0.4956055-1.1005859,1.1049805h-2
					c0-1.7119141,1.390625-3.1049805,3.1005859-3.1049805C85.609375,32.8789062,87,34.2719727,87,35.9838867v14.4990234
					C86.9951172,56.8344727,81.8388672,62,75.5,62z"/>
			</g>
		</g>
		<g id="XMLID_32_">
			<path d="M48.5,45C42.1591797,45,37,39.8295898,37,33.4746094v-8.2348633c0-1.7119141,1.390625-3.1049805,3.0996094-3.1049805
				c0.3876953,0,0.7587891,0.0717773,1.1005859,0.2021484v-6.5629883c0-1.7119141,1.390625-3.1049805,3.0996094-3.1049805
				c0.390625,0,0.7646484,0.0727539,1.109375,0.2050781C45.5273438,11.2695312,46.8681641,10,48.5,10
				c1.2011719,0,2.2441406,0.6875,2.7587891,1.690918c0.4306641-0.2275391,0.921875-0.3564453,1.4414062-0.3564453
				c1.7089844,0,3.0996094,1.3930664,3.0996094,3.1049805v1.6416016c0.3417969-0.1303711,0.7128906-0.2021484,1.1005859-0.2021484
				C58.609375,15.8789062,60,17.2719727,60,18.9838867v14.4990234C59.9951172,39.8344727,54.8388672,45,48.5,45z
				 M40.0996094,24.1347656C39.4931641,24.1347656,39,24.6303711,39,25.2397461v8.2348633C39,38.7270508,43.2617188,43,48.5,43
				s9.5-4.2729492,9.5-9.5253906V18.9838867c0-0.609375-0.4931641-1.1049805-1.0996094-1.1049805
				s-1.1005859,0.4956055-1.1005859,1.1049805h-2v-4.5444336c0-0.609375-0.4931641-1.1049805-1.0996094-1.1049805
				s-1.1005859,0.4956055-1.1005859,1.1049805h-2v-1.3344727C49.5996094,12.4956055,49.1064453,12,48.5,12
				s-1.0996094,0.4956055-1.0996094,1.1049805v2.6689453h-2c0-0.609375-0.4941406-1.1049805-1.1005859-1.1049805
				s-1.0996094,0.4956055-1.0996094,1.1049805v9.4658203h-2C41.2001953,24.6303711,40.7060547,24.1347656,40.0996094,24.1347656z"/>
			<g id="XMLID_33_">
				<path d="M55.7998047,27.7929688h-2V14.4394531c0-0.609375-0.4931641-1.1049805-1.0996094-1.1049805
					s-1.1005859,0.4956055-1.1005859,1.1049805h-2c0-1.7119141,1.390625-3.1049805,3.1005859-3.1049805
					c1.7089844,0,3.0996094,1.3930664,3.0996094,3.1049805V27.7929688z"/>
				<rect x="49.5996094" y="13.1049805" width="2" height="14.6879883"/>
				<path d="M47.4003906,27.7929688h-2V13.1049805C45.4003906,11.3930664,46.7910156,10,48.5,10
					s3.0996094,1.3930664,3.0996094,3.1049805h-2C49.5996094,12.4956055,49.1064453,12,48.5,12
					s-1.0996094,0.4956055-1.0996094,1.1049805V27.7929688z"/>
				<path d="M47.4003906,15.7739258h-2c0-0.609375-0.4941406-1.1049805-1.1005859-1.1049805
					s-1.0996094,0.4956055-1.0996094,1.1049805h-2c0-1.7119141,1.390625-3.1049805,3.0996094-3.1049805
					C46.0097656,12.6689453,47.4003906,14.0620117,47.4003906,15.7739258z"/>
				<rect x="41.2001953" y="15.7739258" width="2" height="9.4658203"/>
				<path d="M48.5,45C42.1591797,45,37,39.8295898,37,33.4746094v-8.2348633c0-1.7119141,1.390625-3.1049805,3.0996094-3.1049805
					c1.7099609,0,3.1005859,1.3930664,3.1005859,3.1049805v5.4511719c3.9912109,0.4951172,7.0908203,3.9150391,7.0908203,8.0463867
					h-2c0-3.3676758-2.7324219-6.1079102-6.0908203-6.1079102h-1v-7.3896484c0-0.609375-0.4941406-1.1049805-1.1005859-1.1049805
					S39,24.6303711,39,25.2397461v8.2348633C39,38.7270508,43.2617188,43,48.5,43s9.5-4.2729492,9.5-9.5253906V18.9838867
					c0-0.609375-0.4931641-1.1049805-1.0996094-1.1049805s-1.1005859,0.4956055-1.1005859,1.1049805h-2
					c0-1.7119141,1.390625-3.1049805,3.1005859-3.1049805C58.609375,15.8789062,60,17.2719727,60,18.9838867v14.4990234
					C59.9951172,39.8344727,54.8388672,45,48.5,45z"/>
			</g>
		</g>
	</g>
</g>
</svg>
