<?xml version="1.0" encoding="utf-8"?>
<!-- Generator: Adobe Illustrator 19.1.0, SVG Export Plug-In . SVG Version: 6.00 Build 0)  -->
<svg version="1.1" id="Layer_1" xmlns="http://www.w3.org/2000/svg" xmlns:xlink="http://www.w3.org/1999/xlink" x="0px" y="0px"
	 viewBox="0 0 94 72" style="enable-background:new 0 0 94 72;" xml:space="preserve">
<style type="text/css">
	.st0{fill:none;stroke:#808080;stroke-width:2;stroke-miterlimit:10;}
	.st1{fill:#808080;}
	.st2{fill:#FFFFFF;stroke:#808080;stroke-width:2;stroke-miterlimit:10;}
	.st3{fill:#82327D;}
	.st4{fill:#AA321E;}
	.st5{fill:#1E3C96;}
	.st6{fill:#FFFFFF;}
	.st7{fill:none;stroke:#000000;stroke-miterlimit:10;}
</style>
<g id="Main_Nav_-_Neutral">
	<g>
		<path d="M85,62H11V10h74V62z M13,60h70V12H13V60z"/>
		<rect x="48" y="38" width="30" height="2"/>
		<rect x="48" y="46" width="30" height="2"/>
		<rect x="48" y="30" width="30" height="2"/>
		<path d="M43,48H17V22h26V48z M19,46h22V24H19V46z"/>
		<path d="M30,39c-3.8598633,0-7-3.1401367-7-7s3.1401367-7,7-7s7,3.1401367,7,7S33.8598633,39,30,39z M30,27
			c-2.7568359,0-5,2.2431641-5,5s2.2431641,5,5,5s5-2.2431641,5-5S32.7568359,27,30,27z"/>
		<path d="M41.4453125,46.8320312c-7.7011719-5.1347656-15.1894531-5.1347656-22.890625,0l-1.109375-1.6640625
			c8.3310547-5.5537109,16.7783203-5.5537109,25.109375,0L41.4453125,46.8320312z"/>
	</g>
</g>
</svg>
