<?xml version="1.0" encoding="utf-8"?>
<!-- Generator: Adobe Illustrator 19.1.0, SVG Export Plug-In . SVG Version: 6.00 Build 0)  -->
<svg version="1.1" id="Layer_1" xmlns="http://www.w3.org/2000/svg" xmlns:xlink="http://www.w3.org/1999/xlink" x="0px" y="0px"
	 viewBox="0 0 82 72" style="enable-background:new 0 0 82 72;" xml:space="preserve">
<style type="text/css">
	.st0{fill:none;stroke:#808080;stroke-width:2;stroke-miterlimit:10;}
	.st1{fill:#808080;}
	.st2{fill:#FFFFFF;stroke:#808080;stroke-width:2;stroke-miterlimit:10;}
	.st3{fill:#82327D;}
	.st4{fill:#AA321E;}
	.st5{fill:#1E3C96;}
	.st6{fill:#FFFFFF;}
	.st7{fill:none;stroke:#000000;stroke-miterlimit:10;}
</style>
<g id="Main_Nav_-_Neutral">
	<g>
		<g>
			<path d="M18.7332172,25.659668h-1.9926071v-4.4165039C16.7406101,15.043457,21.7654209,10,27.9422073,10h6.8919029
				C38.6962433,10,42.3068695,11.5302734,45,14.3095703l-1.4282951,1.3945312C41.2565689,13.3154297,38.1538239,12,34.8341103,12
				h-6.8919029c-5.077837,0-9.2089901,4.1464844-9.2089901,9.2431641V25.659668z"/>
			<path d="M17.7369137,62C13.4710064,62,10,58.5166016,10,54.234375v-2.9794922
				c0-2.4165039,1.9590387-4.3828125,4.3666086-4.3828125c0.8766298,0,1.6934233,0.2607422,2.3783808,0.7084961
				l0.0063248-21.9213867l1.9926052,0.0009766l-0.0082703,28.574707l-1.9926052,0.0004883l-0.0024338-2.9794922
				c0-1.3149414-1.0648947-2.3837891-2.3740015-2.3837891s-2.3740034,1.0688477-2.3740034,2.3828125v2.9794922
				c0,3.1791992,2.5768633,5.7661133,5.7443085,5.7661133s5.7447948-2.5869141,5.7447948-5.7661133v-9.987793
				c0-4.2890625,3.4763565-7.7783203,7.7495613-7.7783203h3.6028404c0.5477753,0,1.0979767-0.0366211,1.6365051-0.1088867
				l0.2636719,1.9824219c-0.6251221,0.0839844-1.2643509,0.1264648-1.900177,0.1264648h-3.6028404
				c-3.1742554,0-5.7569561,2.5922852-5.7569561,5.7783203v9.987793C25.4743137,58.5166016,22.0033073,62,17.7369137,62z"/>
			<circle cx="26" cy="27.0000114" r="2"/>
		</g>
		<path d="M51.1285477,31.8774414l-3.9826813-19.7744141c-1.3601151,0.3583984-2.3666534,1.6098633-2.3666534,3.0942383v8.003418
			h-2.0003738v-8.003418C42.7788391,12.331543,45.0956802,10,47.9438705,10h0.8190002l4.3269806,21.4829102L51.1285477,31.8774414z"
			/>
		<path d="M63.7905807,62c-2.1957245,0-4.2595863-0.8608398-5.8116341-2.4243164l-2.281189-2.2993164
			c-0.9225349-0.9243164-2.2460251-1.331543-3.5138397-1.0874023l-0.271534,0.0776367
			c-4.7748184,1.2836914-9.9115219-0.1040039-13.4028969-3.621582c-2.572258-2.5927734-4.0031891-6.003418-4.0593529-9.6494141
			h-0.0014648c0-0.0400391,0-0.0800781,0.0004883-0.1191406c-0.0009766-0.1186523-0.0004883-0.237793,0.0014687-0.3569336h0.0024414
			c0.1079292-5.9711914,2.2460251-8.1318359,3.6735382-9.5742188c1.1647682-1.1772461,1.4070015-1.4223633,0.0346718-3.4296875
			l-7.2977486-10.8935547c-1.5774441-2.3891602-0.9323044-5.6196289,1.4343491-7.206543l0.6866531-0.4604492l36.616703,36.9316406
			c3.1983566,3.222168,3.1983566,8.4663086,0,11.6889648C68.049675,61.1391602,65.9863052,62,63.7905807,62z M57.1242943,55.8740234
			l2.2748413,2.2929688c1.1735573,1.1821289,2.732933,1.8334961,4.3914452,1.8334961
			C65.4486084,60,67.0079803,59.3491211,68.1810455,58.1669922c2.4277039-2.4462891,2.4277039-6.4257812,0-8.871582
			L50.7632446,31.7436523l-0.0122108,0.0117188L32.7857628,13.628418c-0.9235134,1.0600586-1.0685596,2.6557617-0.2563972,3.8862305
			l7.2889595,10.8798828c2.1376076,3.1274414,1.2814903,4.3896484-0.2700691,5.9575195
			c-1.2907677,1.3041992-3.0518379,3.0849609-3.0982361,8.4277344l-0.0004883,0.109375
			c0.0297928,3.1547852,1.258049,6.1074219,3.4801445,8.347168c2.8789558,2.8999023,7.0633316,4.1069336,11.0181732,3.2089844
			l0.4434395-0.1259766C53.4365959,53.7749023,55.6323166,54.3706055,57.1242943,55.8740234L57.1242943,55.8740234z"/>
		
			<rect x="65.5765762" y="47.8878899" transform="matrix(0.7071068 0.7071068 -0.7071068 0.7071068 55.1862907 -32.2314949)" width="1.8468446" height="5.2242231"/>
		<circle cx="51" cy="39" r="2"/>
	</g>
</g>
</svg>
