<?xml version="1.0" encoding="utf-8"?>
<!-- Generator: Adobe Illustrator 19.1.0, SVG Export Plug-In . SVG Version: 6.00 Build 0)  -->
<svg version="1.1" id="Layer_1" xmlns="http://www.w3.org/2000/svg" xmlns:xlink="http://www.w3.org/1999/xlink" x="0px" y="0px"
	 viewBox="0 0 97 72" style="enable-background:new 0 0 97 72;" xml:space="preserve">
<style type="text/css">
	.st0{fill:none;stroke:#808080;stroke-width:2;stroke-miterlimit:10;}
	.st1{fill:#808080;}
	.st2{fill:#FFFFFF;stroke:#808080;stroke-width:2;stroke-miterlimit:10;}
	.st3{fill:#82327D;}
	.st4{fill:#AA321E;}
	.st5{fill:#1E3C96;}
	.st6{fill:#FFFFFF;}
	.st7{fill:none;stroke:#000000;stroke-miterlimit:10;}
</style>
<g id="Main_Nav_-_Neutral">
	<g>
		<path d="M92,62.0004883H70v-36h22V62.0004883z M72,60.0004883h18v-32H72V60.0004883z"/>
		<path d="M32,62.0004883H10v-36h22V62.0004883z M12,60.0004883h18v-32H12V60.0004883z"/>
		<path d="M72,24H30v-5.9004898L51,10l21,8.0995102V24z M32,22.0103397h38v-2.5477943l-19-7.3281298l-19,7.3281298V22.0103397z"/>
		<path d="M38,54h-8V22h8V54z M32,52h4V24h-4V52z"/>
		<path d="M55,54h-8V22h8V54z M49,52h4V24h-4V52z"/>
		<path d="M72,54.0004883h-8v-32h8V54.0004883z M66,52.0004883h4v-28h-4V52.0004883z"/>
		<path d="M72,62.0004883H30v-10h42V62.0004883z M32,60.0004883h38v-6H32V60.0004883z"/>
	</g>
</g>
</svg>
