<?xml version="1.0" encoding="utf-8"?>
<!-- Generator: Adobe Illustrator 19.1.0, SVG Export Plug-In . SVG Version: 6.00 Build 0)  -->
<!DOCTYPE svg PUBLIC "-//W3C//DTD SVG 1.1//EN" "http://www.w3.org/Graphics/SVG/1.1/DTD/svg11.dtd">
<svg version="1.1" id="Layer_1" xmlns="http://www.w3.org/2000/svg" xmlns:xlink="http://www.w3.org/1999/xlink" x="0px" y="0px"
	 viewBox="0 0 260 260" enable-background="new 0 0 260 260" xml:space="preserve">
<g>
	<path fill="#3296F0" d="M220.1,190H219H41h-1.1c-2.7,0-4.9,2.2-4.9,4.9v0.2c0,2.7,2.2,4.9,4.9,4.9H41v48h7v-43c0-2.8,2.2-5,5-5
		s5,2.2,5,5v43h9.2v-43c0-2.8,2.2-5,5-5s5,2.2,5,5v43h9.2v-43c0-2.8,2.2-5,5-5s5,2.2,5,5v43h9.2v-43c0-2.8,2.2-5,5-5s5,2.2,5,5v43
		h9.2v-43c0-2.8,2.2-5,5-5s5,2.2,5,5v43h9.2v-43c0-2.8,2.2-5,5-5s5,2.2,5,5v43h9.2v-43c0-2.8,2.2-5,5-5s5,2.2,5,5v43h9.2v-43
		c0-2.8,2.2-5,5-5s5,2.2,5,5v43h9.2v-43c0-2.8,2.2-5,5-5s5,2.2,5,5v43h7v-48h1.1c2.7,0,4.9-2.2,4.9-4.9v-0.2
		C225,192.2,222.8,190,220.1,190z"/>
	<path fill="#3296F0" d="M205.1,146H204H56h-1.1c-2.7,0-4.9,2.2-4.9,4.9v0.2c0,2.7,2.2,4.9,4.9,4.9H56v30h7v-26c0-2.2,1.8-4,4-4
		s4,1.8,4,4v26h10v-26c0-2.2,1.8-4,4-4s4,1.8,4,4v26h10v-26c0-2.2,1.8-4,4-4s4,1.8,4,4v26h10v-26c0-2.2,1.8-4,4-4s4,1.8,4,4v26h10
		v-26c0-2.2,1.8-4,4-4s4,1.8,4,4v26h10v-26c0-2.2,1.8-4,4-4s4,1.8,4,4v26h10v-26c0-2.2,1.8-4,4-4s4,1.8,4,4v26h10v-26
		c0-2.2,1.8-4,4-4s4,1.8,4,4v26h7v-30h1.1c2.7,0,4.9-2.2,4.9-4.9v-0.2C210,148.2,207.8,146,205.1,146z"/>
	<path fill="#3296F0" d="M190.1,132h-1c-3.9-23.1-20.9-41.7-43.2-47.8V78h-5.7c0.9,0,1.7-0.7,1.7-1.7s-0.7-1.7-1.7-1.7H139V51.3h1.3
		c0.9,0,1.7-0.7,1.7-1.7s-0.7-1.7-1.7-1.7H139h-5V28h-3V12h-2v16h-3v20h-5h-1.3c-0.9,0-1.7,0.7-1.7,1.7s0.7,1.7,1.7,1.7h1.3v23.3
		h-1.3c-0.9,0-1.7,0.7-1.7,1.7s0.7,1.7,1.7,1.7H114v6.2c-22.2,6.1-39.3,24.7-43.2,47.8h-1c-2.7,0-4.9,2.2-4.9,4.9v0.2
		c0,2.7,2.2,4.9,4.9,4.9H70h120h0.1c2.7,0,4.9-2.2,4.9-4.9v-0.2C195,134.2,192.8,132,190.1,132z M86.9,114.9
		c-0.3,0.8-0.6,1.5-0.9,2.3c-0.3,0.8-0.5,1.5-0.7,2.2c-0.5,1.4-0.8,2.8-1.1,4.1c-0.4,1.3-0.5,2.5-0.7,3.5c-0.1,0.5-0.2,1-0.3,1.5
		c-0.1,0.5-0.1,0.9-0.2,1.3c-0.2,1.6-0.3,2.5-0.3,2.5c-0.1,1.1-1.2,1.9-2.2,1.7c-1.1-0.1-1.9-1.2-1.7-2.2c0,0,0-0.1,0-0.1
		c0,0,0.2-0.9,0.5-2.4c0.1-0.4,0.2-0.8,0.3-1.3c0.1-0.5,0.3-1,0.4-1.6c0.3-1.1,0.6-2.4,1-3.7c0.4-1.3,0.9-2.8,1.5-4.2
		c0.3-0.7,0.6-1.5,0.9-2.3c0.3-0.8,0.7-1.5,1.1-2.3c0.3-0.8,0.8-1.6,1.2-2.4c0.4-0.8,0.8-1.6,1.3-2.4c0.5-0.8,0.9-1.6,1.4-2.3
		c0.5-0.8,1-1.5,1.5-2.3l0.8-1.1l0.9-1.1c0.6-0.7,1.1-1.5,1.7-2.1c0.6-0.7,1.2-1.3,1.8-2c0.6-0.7,1.2-1.2,1.8-1.9
		c0.3-0.3,0.6-0.6,0.9-0.9c0.3-0.3,0.6-0.6,0.9-0.8c0.6-0.5,1.2-1.1,1.8-1.6c0.6-0.5,1.2-0.9,1.8-1.4c0.3-0.2,0.6-0.4,0.9-0.7
		c0.3-0.2,0.6-0.4,0.9-0.6c1.1-0.8,2.2-1.4,3.2-2c1-0.5,1.8-1,2.5-1.3c1.4-0.7,2.3-1.1,2.3-1.1s-0.8,0.4-2.2,1.2
		c-0.7,0.4-1.5,0.9-2.4,1.5c-0.9,0.6-1.9,1.3-3,2.1c-0.3,0.2-0.5,0.4-0.8,0.6c-0.3,0.2-0.5,0.5-0.8,0.7c-0.5,0.5-1.1,1-1.7,1.5
		c-0.5,0.5-1.1,1.1-1.7,1.7c-0.3,0.3-0.6,0.6-0.9,0.9c-0.3,0.3-0.5,0.6-0.8,0.9c-0.5,0.6-1.1,1.3-1.7,1.9c-0.5,0.7-1.1,1.4-1.6,2.1
		c-0.5,0.7-1,1.5-1.5,2.2l-0.7,1.1l-0.7,1.2c-0.4,0.8-0.9,1.5-1.3,2.3c-0.4,0.8-0.8,1.6-1.2,2.4c-0.4,0.8-0.7,1.6-1.1,2.4
		C87.5,113.4,87.1,114.1,86.9,114.9z M97,111.1c-0.5,1.6-1.1,3.1-1.5,4.6c-0.5,1.5-0.8,3-1.1,4.3c-0.4,1.4-0.5,2.7-0.8,3.9
		c-0.2,1.2-0.3,2.3-0.5,3.3c-0.2,1-0.2,1.9-0.3,2.6c-0.1,1.5-0.2,2.3-0.2,2.3c-0.1,1.1-1.1,1.9-2.2,1.8c-1.1-0.1-1.9-1.1-1.8-2.2
		c0,0,0-0.1,0-0.1c0,0,0.1-0.8,0.4-2.3c0.1-0.7,0.3-1.6,0.5-2.7c0.2-1,0.5-2.2,0.8-3.5c0.4-1.2,0.7-2.6,1.1-4
		c0.5-1.4,0.9-2.9,1.5-4.4c0.5-1.5,1.2-3.1,1.9-4.6c0.3-0.8,0.7-1.5,1.1-2.3c0.4-0.8,0.7-1.5,1.2-2.3c0.4-0.7,0.8-1.5,1.3-2.2
		c0.5-0.7,0.9-1.4,1.4-2.2c0.4-0.7,1-1.4,1.4-2.1c0.5-0.7,0.9-1.3,1.5-2c0.5-0.6,1-1.2,1.5-1.8c0.5-0.6,1-1.1,1.5-1.7
		c0.5-0.6,1-1,1.5-1.5c0.5-0.5,1-0.9,1.5-1.4c1-0.8,1.9-1.6,2.7-2.2c0.9-0.6,1.6-1.1,2.2-1.5c1.3-0.7,2-1.2,2-1.2s-0.7,0.5-1.9,1.3
		c-0.6,0.4-1.3,1-2.1,1.7c-0.8,0.6-1.6,1.5-2.5,2.3c-0.4,0.4-0.9,0.9-1.3,1.4c-0.5,0.5-0.9,1-1.4,1.6c-0.4,0.6-0.9,1.1-1.4,1.7
		c-0.4,0.6-0.9,1.3-1.3,1.9c-0.5,0.6-0.9,1.3-1.3,2c-0.4,0.7-0.9,1.4-1.2,2.1c-0.4,0.7-0.8,1.5-1.2,2.2c-0.4,0.8-0.7,1.5-1.1,2.3
		c-0.4,0.7-0.7,1.5-1,2.3C97.6,109.6,97.2,110.3,97,111.1z M106.5,107.5c-0.4,1.5-0.9,3-1.3,4.5c-0.4,1.5-0.7,3-1,4.4
		c-0.3,1.4-0.5,2.9-0.7,4.2c-0.2,1.3-0.3,2.6-0.5,3.8c-0.1,1.2-0.2,2.2-0.3,3.2c-0.1,0.9-0.1,1.8-0.2,2.5c-0.1,1.4-0.1,2.2-0.1,2.2
		c-0.1,1.1-1,1.9-2.1,1.9s-1.9-1-1.9-2.1c0-0.1,0-0.1,0-0.2c0,0,0.1-0.8,0.3-2.2c0.1-0.7,0.2-1.5,0.4-2.5c0.2-1,0.4-2.1,0.6-3.3
		c0.3-1.2,0.5-2.5,0.8-3.8c0.4-1.3,0.7-2.8,1.1-4.2c0.4-1.5,0.9-3,1.4-4.5c0.5-1.5,1.1-3,1.7-4.5c0.6-1.5,1.2-3,1.9-4.4
		c0.7-1.4,1.4-2.8,2.2-4.1c0.4-0.7,0.8-1.3,1.2-1.9c0.4-0.6,0.8-1.2,1.2-1.8c0.4-0.6,0.8-1.1,1.2-1.6c0.4-0.5,0.8-1,1.2-1.5
		c0.8-0.9,1.5-1.7,2.2-2.4c0.7-0.7,1.3-1.3,1.9-1.7c1.1-0.9,1.7-1.4,1.7-1.4s-0.6,0.5-1.6,1.5c-0.5,0.5-1,1.1-1.7,1.8
		c-0.6,0.8-1.3,1.6-2,2.6c-0.3,0.5-0.7,1-1,1.5c-0.4,0.5-0.7,1.1-1,1.7c-0.4,0.6-0.7,1.2-1,1.8c-0.3,0.6-0.7,1.3-1,1.9
		c-0.6,1.3-1.2,2.7-1.8,4.2C107.5,104.5,107,106,106.5,107.5z M116.5,99.7c-0.4,1.3-0.7,2.8-1.1,4.2c-0.3,1.4-0.7,2.9-0.9,4.4
		c-0.3,1.5-0.5,2.9-0.7,4.4c-0.2,1.5-0.4,2.9-0.6,4.3c-0.1,1.4-0.3,2.7-0.4,4c-0.1,1.3-0.2,2.5-0.3,3.6c-0.1,1.1-0.1,2.1-0.1,3
		c0,0.9-0.1,1.7-0.1,2.4c0,1.3-0.1,2.1-0.1,2.1c0,1.1-0.9,2-2.1,1.9c-1.1,0-2-0.9-1.9-2.1c0-0.1,0-0.1,0-0.2c0,0,0.1-0.8,0.2-2.1
		c0.1-0.7,0.1-1.4,0.3-2.4c0.1-0.9,0.3-2,0.4-3.1c0.2-1.1,0.4-2.4,0.6-3.7c0.2-1.3,0.5-2.7,0.7-4.1c0.3-1.4,0.6-2.9,0.9-4.3
		c0.3-1.5,0.7-2.9,1.1-4.4c0.4-1.5,0.9-2.9,1.3-4.4c0.5-1.4,0.9-2.8,1.5-4.2c0.5-1.3,1.1-2.6,1.6-3.8c0.6-1.2,1.1-2.3,1.6-3.3
		c0.5-1,1.1-1.9,1.6-2.7c0.5-0.8,1-1.4,1.4-2c0.8-1,1.3-1.6,1.3-1.6s-0.5,0.6-1.2,1.7c-0.3,0.6-0.8,1.2-1.2,2
		c-0.4,0.8-0.9,1.7-1.3,2.8c-0.5,1-0.9,2.2-1.3,3.4C117.3,97.1,116.8,98.4,116.5,99.7z M126.2,86.5c-0.1,0.3-0.3,0.8-0.5,1.4
		c-0.2,0.6-0.4,1.3-0.6,2.2c-0.2,0.9-0.4,1.8-0.6,2.9c-0.8,4.3-1.5,10.1-1.9,15.8c-0.4,5.8-0.5,11.6-0.6,15.9c0,2.2,0,4,0,5.3
		c0,1.3,0,2,0,2c0,1.1-0.9,2-2,2c-1.1,0-2-0.9-2-2c0-0.1,0-0.1,0-0.2c0,0,0.1-0.7,0.2-2c0.1-1.3,0.2-3.1,0.4-5.3
		c0.4-4.4,1-10.2,1.9-16c0.9-5.8,2.1-11.5,3.3-15.8c0.3-1.1,0.6-2,0.9-2.9c0.3-0.9,0.6-1.6,0.8-2.2
		C125.8,87.2,126.1,86.8,126.2,86.5c0.1-0.3,0.2-0.5,0.2-0.5S126.3,86.2,126.2,86.5z M133,78h-6V56c0-1.7,1.3-3,3-3s3,1.3,3,3V78z"
		/>
</g>
</svg>
